<svg xmlns="http://www.w3.org/2000/svg"><symbol id="s-back" viewBox="0 0 120 120"><path d="M34.358 43.3l60.033 60.04-16.65 16.65L17.7 59.957z"/><path d="M17.606 60.067L77.623.01 94.28 16.654 34.257 76.71z"/></symbol><symbol id="s-ccw" viewBox="0 0 146.869 210.794"><path d="M146.869 115.574c0-46.312-33.237-85.002-77.109-93.484L69.522 0 0 36.427l69.998 39.286-.238-22.78c27.176 7.87 47.109 32.964 47.109 62.642 0 35.962-29.02 66.887-64.982 66.887 3.343 13.187 3.704 13.25-.237 28.332 52.504 0 95.219-42.716 95.219-95.22z"/></symbol><symbol id="s-check" viewBox="0 0 8 8"><g fill="#1a1a1a"><path d="M3.11 7.169L.048 4.107l1.144-1.144 3.062 3.062z"/><path d="M8.063 2.208L3.735 6.536l-1.22-1.22L6.843.988z"/></g></symbol><symbol id="s-cw" viewBox="0 0 146.869 210.794"><path d="M0 115.574C0 69.262 33.237 30.572 77.109 22.09L77.347 0l69.522 36.427-69.998 39.286.238-22.78C49.933 60.803 30 85.897 30 115.575c0 35.962 29.02 66.888 64.982 66.888-3.343 13.186-3.704 13.248.237 28.331C42.715 210.794 0 168.078 0 115.574z"/></symbol><symbol id="s-down" viewBox="0 0 84.56 82.148"><path d="M48.732 73.783l42.307-42.307 11.741 11.739-42.308 42.312z" transform="translate(-18.22 -3.424)"/><path d="M50.999 3.424h19.055v60.21H50.999z" transform="translate(-18.22 -3.424)"/><path d="M60.543 85.572L18.22 43.283l11.721-11.741 42.33 42.308z" transform="translate(-18.22 -3.424)"/></symbol><symbol id="s-download" viewBox="0 0 120 120"><g fill="#1a1a1a"><path d="M48.732 69.783l42.307-42.307 11.741 11.739-42.308 42.312z"/><path d="M50.999 3.424h19.055v60.21H50.999z"/><path d="M60.543 81.572L18.22 39.283l11.721-11.741 42.33 42.308zM9 99.575h103v17H9z"/><path d="M5.5 68.576h17v48h-17zm92 0h17v48h-17z"/></g></symbol><symbol id="s-edit" viewBox="0 0 120 120"><path fill="#1a1a1a" d="M114.25 70.73c2.21 0 4.27-1.792 4.572-3.984 0 0 .422-3.08.422-6.745s-.422-6.74-.422-6.74c-.304-2.19-2.36-3.98-4.572-3.98h-11.433c-2.214 0-4.512-1.41-5.106-3.134s-1.41-7.255.16-8.82l8.08-8.08c1.566-1.565 1.688-4.236.27-5.937l-9.51-9.51c-1.7-1.42-4.37-1.3-5.94.267l-8.08 8.08c-1.56 1.568-4.17 2.198-5.79 1.404s-6.162-4.143-6.162-6.356V5.75c0-2.213-1.793-4.27-3.984-4.572 0 0-3.08-.424-6.746-.424s-6.744.424-6.744.424c-2.197.3-3.99 2.36-3.99 4.572v11.433c0 2.213-1.41 4.51-3.137 5.106s-7.255 1.41-8.82-.16l-8.08-8.08C27.67 12.49 25 12.37 23.3 13.78l-9.51 9.51c-1.416 1.7-1.296 4.37.27 5.94l8.08 8.08c1.565 1.566 2.197 4.173 1.4 5.793s-4.14 6.165-6.353 6.165H5.75c-2.21 0-4.27 1.792-4.57 3.984 0 0-.424 3.08-.424 6.744s.424 6.743.424 6.743c.3 2.195 2.36 3.99 4.572 3.99h11.44c2.215 0 4.51 1.41 5.107 3.134.592 1.725 1.41 7.254-.155 8.818l-8.08 8.08C12.5 92.33 12.38 95 13.798 96.7l9.507 9.51c1.7 1.42 4.37 1.3 5.935-.27l8.08-8.08c1.565-1.56 4.172-2.19 5.793-1.4s6.16 4.146 6.16 6.358v11.433c0 2.21 1.795 4.27 3.99 4.57 0 0 3.08.428 6.744.428s6.745-.423 6.745-.423c2.194-.3 3.986-2.36 3.986-4.57v-11.43c0-2.214 1.41-4.513 3.136-5.107 1.726-.592 7.256-1.41 8.82.154l8.08 8.08c1.565 1.566 4.236 1.69 5.938.27l9.507-9.505c1.42-1.7 1.3-4.37-.27-5.937l-8.08-8.08c-1.565-1.567-2.197-4.175-1.4-5.796.793-1.62 4.142-6.162 6.354-6.162h11.44zM60 81.688c-11.977 0-21.686-9.707-21.686-21.687 0-11.97 9.71-21.68 21.686-21.68S81.687 48.03 81.687 60 71.977 81.687 60 81.687z"/></symbol><symbol id="s-emote" viewBox="0 0 36 36"><path d="M337.143 568.648a18 18 0 00-18 18 18 18 0 0018 18 18 18 0 0018-18 18 18 0 00-18-18zm-5.432 7.348a3.068 4.826 0 013.069 4.826 3.068 4.826 0 01-3.069 4.826 3.068 4.826 0 01-3.068-4.826 3.068 4.826 0 013.068-4.826zm10.54.025a3.068 4.826 0 013.068 4.826 3.068 4.826 0 01-3.069 4.824 3.068 4.826 0 01-3.068-4.824 3.068 4.826 0 013.068-4.826zm-14.39 12.594c.102.005.197.017.282.033 2.973.578 5.377 1 9 1s6.027-.422 9-1c.679-.132 2 0 2 2 0 4-4.596 9-11 9-6.405 0-11-5-11-9 0-1.75 1.01-2.069 1.719-2.033z" transform="translate(-319.143 -568.648)"/></symbol><symbol id="s-envelope" viewBox="0 0 120 120"><path fill="#1a1a1a" d="M118.64 21.538L60 67.974 1.368 21.538zm0 66.472L83.37 60.002l35.27-28.005zM1.21 31.998l35.265 28.005L1.21 88.01z"/><path d="M76.912 64.975L60.08 78.252 43.248 64.975 1.368 98.01h117.42z" fill="#1a1a1a"/></symbol><symbol id="s-exit" viewBox="0 0 120 120"><g fill="#1a1a1a"><path d="M107.36 71.768L65.052 29.461l11.74-11.739L119.1 60.029z"/><path d="M41 50.446h60.21v19.055H41z"/><path d="M119.15 59.957L76.858 102.28 65.119 90.558l42.311-42.329zM5 8.5h17v103H5z"/><path d="M5 5h48v17H5zm0 92h48v17H5z"/></g></symbol><symbol id="s-forward" viewBox="0 0 120 120"><path d="M34.358 43.3l60.033 60.04-16.65 16.65L17.7 59.957z" transform="matrix(-1 0 0 1 111.997 0)"/><path d="M17.606 60.067L77.623.01 94.28 16.654 34.257 76.71z" transform="matrix(-1 0 0 1 111.997 0)"/></symbol><symbol id="s-harddrop" viewBox="0 0 103 101.151"><path d="M91.039 31.476l11.741 11.739-42.308 42.312-11.74-11.744z" transform="translate(-9 -3.424)"/><path d="M50.999 3.424h19.055v60.21H50.999z" transform="translate(-9 -3.424)"/><path d="M18.22 43.283l11.721-11.741 42.33 42.308-11.728 11.722zM9 87.575h103v17H9z" transform="translate(-9 -3.424)"/></symbol><symbol id="s-hold" viewBox="0 0 784.223 725.701"><path d="M990 742.4L794 575.8v98H402V811h392v88.2zM401.777 223.5l-196 166.6 196 156.8v-88.2h392V321.5h-392v-98z" transform="translate(-205.777 -173.5)"/></symbol><symbol id="s-plus" viewBox="0 0 8 8"><g fill="#1a1a1a"><path d="M.336 3.097h7.328v1.807H.336z"/><path d="M3.097.336h1.807v7.328H3.097z"/></g></symbol><symbol id="s-r180" viewBox="0 0 108.74 90.397"><path style="line-height:125%;-inkscape-font-specification:'Verdana Bold'" d="M21.037 65.644H1.623v-5.079h6.133v-15.37H1.623v-4.747q1.407 0 2.696-.156 1.289-.176 2.148-.586 1.016-.488 1.523-1.27.508-.78.586-1.953h6.465v24.082h5.996v5.079zm28.709-8.125q0 3.867-3.3 6.328-3.282 2.46-9.024 2.46-3.223 0-5.527-.663-2.305-.665-3.81-1.836-1.483-1.153-2.206-2.696-.703-1.543-.703-3.32 0-2.188 1.27-3.867 1.288-1.7 4.433-2.969v-.117q-2.54-1.172-3.73-2.95-1.192-1.777-1.192-4.12 0-3.457 3.203-5.665 3.203-2.207 8.34-2.207 5.39 0 8.438 2.012 3.066 1.992 3.066 5.332 0 2.07-1.29 3.692-1.288 1.62-3.944 2.754v.117q3.046 1.152 4.511 3.105 1.465 1.953 1.465 4.61zM41.68 44.08q0-1.484-1.153-2.363-1.132-.88-3.027-.88-.703 0-1.445.177-.723.175-1.328.507-.567.332-.938.88-.371.527-.371 1.21 0 1.153.645 1.797.664.645 2.148 1.29.547.234 1.484.585.957.332 2.305.762.898-1.055 1.29-1.895.39-.84.39-2.07zm.605 13.77q0-1.407-.703-2.13-.703-.722-2.89-1.66-.645-.292-1.876-.722-1.23-.43-2.07-.742-.84.761-1.523 1.855-.664 1.074-.664 2.422 0 2.031 1.445 3.242 1.465 1.192 3.809 1.192.625 0 1.464-.176.84-.195 1.446-.586.703-.45 1.132-1.055.43-.605.43-1.64zm35.645-6.757q0 3.672-.664 6.582-.664 2.89-2.07 4.746-1.446 1.894-3.712 2.871-2.265.957-5.586.957-3.261 0-5.566-.977-2.305-.976-3.73-2.89-1.446-1.914-2.09-4.746-.645-2.852-.645-6.524 0-3.789.664-6.582.664-2.793 2.11-4.726 1.445-1.914 3.75-2.871 2.304-.957 5.507-.957 3.34 0 5.606.996 2.266.976 3.71 2.93 1.427 1.913 2.071 4.726.645 2.793.645 6.465zm-7.559 0q0-5.274-1.035-7.5-1.035-2.246-3.438-2.246-2.402 0-3.437 2.246-1.035 2.226-1.035 7.539 0 5.176 1.054 7.46 1.055 2.286 3.418 2.286 2.364 0 3.418-2.285 1.055-2.285 1.055-7.5z" font-weight="700" font-size="40" font-family="Verdana" letter-spacing="0" word-spacing="0" transform="translate(-1.623)"/><path d="M110.363 49.563c0-19.86-14.253-36.452-33.067-40.09L77.194 0 47.38 15.621 77.398 32.47l-.102-9.77c11.654 3.376 20.202 14.137 20.202 26.864 0 15.422-12.445 28.684-27.867 28.684 1.434 5.655 1.588 5.682-.102 12.15 22.516 0 40.834-18.318 40.834-40.834z" transform="translate(-1.623)"/></symbol><symbol id="s-reload" viewBox="0 0 120 120"><path fill="none" d="M120 0v45.336M91.418 43.5h22.622"/><g fill="#1a1a1a"><path d="M60 95.5c-19.575 0-35.5-15.926-35.5-35.5 0-19.575 15.925-35.5 35.5-35.5 13.62 0 25.467 7.714 31.418 19h22.627c-7.06-23.153-28.578-40-54.04-40-31.204 0-56.5 25.296-56.5 56.5 0 31.203 25.296 56.5 56.5 56.5 16.264 0 30.911-6.882 41.221-17.88L85.895 84.255C79.412 91.168 70.207 95.5 60.006 95.5z"/><path d="M120 21.832l-.01 47.01-45.163-13.031z"/></g></symbol><symbol id="s-rubbish" viewBox="0 0 120 120"><g fill="#1a1a1a"><path d="M111.6 25.291H8.403l2-15.535H109.6z"/><path d="M76.842 10.474H43.158l3-7.474h27.684zm8.51 20.343V104.7h-7.234V30.817H63.617V104.7h-7.234V30.817H40.887V104.7h-7.233V30.817H15.017l5 85.753h79.965l5.998-85.753z"/></g></symbol><symbol id="s-screens" viewBox="0 0 468.354 456.863"><path d="M9.85 245.922v201.021h127.28v-200.01zm160.799.024v201.02h127.28v-200.01zm160.232.046v201.02h127.28v-200.01zM10.194 9.928v201.02h127.279V10.938zm160.799.023v201.02h127.28V10.962zm160.232.046v201.02h127.279V11.007z" fill="none" stroke="#000" stroke-width="19.7"/></symbol><symbol id="s-warn" viewBox="0 0 534.98 490.59"><path d="M499.61 384.6L318.54 51.26C294.202 3.892 278.265 7.223 255.978 7.147c-23.911-.081-36.724-6.081-64.562 44.113-.103.176-.19.352-.293.528l-175.4 335.85c-17.016 36.228-34.589 60.585-21.085 84.34 13.535 23.769 50.831 25.499 80.575 25.499h360.54c31.415 0 69.448-3.241 82.982-27.01 13.504-23.754 3.188-39.468-19.126-85.868zM224.6 132.7c-.203-15.588-.25-15.427 31.793-15.623 29.874-.183 29.507-.961 29.623 15.623l1.085 164.83c.108 16.377 1.742 13.925-31.115 13.759-26.618-.134-30.886 3.094-29.216-11.589zm33.386 314.71c-21.235 0-47.046-22.206-47.046-47.046 0-24.839 25.811-47.045 47.046-47.045 21.234 0 47.044 22.206 47.045 47.045s-25.81 47.046-47.045 47.046z" transform="translate(10.209 -6.885)"/></symbol><symbol id="s-customw" viewBox="0 0 980.007 980.087"><path d="M7330.1 5001.4C5995.4 4806.1 5128 3490.5 5472.6 2184.6l49.8-191.5L2900.9-634.2c-2832.1-2834-2700-2694.2-2772.8-2970C-.2-4102.1 323.5-4632.5 829-4753.1c235.5-55.5 450-26.8 676 90 101.5 51.7 476.8 419.4 2742.1 2682.8L6874.3 641.1l187.7-47.9c252.8-65.1 338.9-74.7 610.9-72.8 471.1 1.9 903.8 141.7 1288.7 417.5 607 432.8 969 1171.9 936.4 1911.1-9.6 208.7-47.9 469.2-68.9 469.2-5.7 0-314-302.5-681.7-672.1-369.6-369.6-691.3-681.7-718.1-695.1-143.6-74.7-373.4-42.1-624.3 91.9-212.6 113-350.4 222.1-545.7 428.9-310.2 331.3-469.2 683.6-428.9 955.5 11.5 90 23 101.5 721.9 802.3l708.5 710.4-91.9 23c-252.8 57.5-595.6 74.8-838.8 38.4zM1252.2-3516.1c103.4-72.8 155.1-162.8 164.7-287.2 30.6-415.5-532.3-561.1-706.6-183.8-86.2 183.8-7.7 394.5 183.8 497.9 84.3 45.9 271.9 30.5 358.1-26.9z" transform="matrix(.1 0 0 -.1 -9.996 502.047)" fill="#ccc"/></symbol><symbol id="s-gear" viewBox="0 0 120 120"><path fill="#e6e6e6" d="M114.25 70.73c2.21 0 4.27-1.792 4.572-3.984 0 0 .422-3.08.422-6.745s-.422-6.74-.422-6.74c-.304-2.19-2.36-3.98-4.572-3.98h-11.433c-2.214 0-4.512-1.41-5.106-3.134s-1.41-7.255.16-8.82l8.08-8.08c1.566-1.565 1.688-4.236.27-5.937l-9.51-9.51c-1.7-1.42-4.37-1.3-5.94.267l-8.08 8.08c-1.56 1.568-4.17 2.198-5.79 1.404s-6.162-4.143-6.162-6.356V5.75c0-2.213-1.793-4.27-3.984-4.572 0 0-3.08-.424-6.746-.424s-6.744.424-6.744.424c-2.197.3-3.99 2.36-3.99 4.572v11.433c0 2.213-1.41 4.51-3.137 5.106s-7.255 1.41-8.82-.16l-8.08-8.08C27.67 12.49 25 12.37 23.3 13.78l-9.51 9.51c-1.416 1.7-1.296 4.37.27 5.94l8.08 8.08c1.565 1.566 2.197 4.173 1.4 5.793s-4.14 6.165-6.353 6.165H5.75c-2.21 0-4.27 1.792-4.57 3.984 0 0-.424 3.08-.424 6.744s.424 6.743.424 6.743c.3 2.195 2.36 3.99 4.572 3.99h11.44c2.215 0 4.51 1.41 5.107 3.134.592 1.725 1.41 7.254-.155 8.818l-8.08 8.08C12.5 92.33 12.38 95 13.798 96.7l9.507 9.51c1.7 1.42 4.37 1.3 5.935-.27l8.08-8.08c1.565-1.56 4.172-2.19 5.793-1.4s6.16 4.146 6.16 6.358v11.433c0 2.21 1.795 4.27 3.99 4.57 0 0 3.08.428 6.744.428s6.745-.423 6.745-.423c2.194-.3 3.986-2.36 3.986-4.57v-11.43c0-2.214 1.41-4.513 3.136-5.107 1.726-.592 7.256-1.41 8.82.154l8.08 8.08c1.565 1.566 4.236 1.69 5.938.27l9.507-9.505c1.42-1.7 1.3-4.37-.27-5.937l-8.08-8.08c-1.565-1.567-2.197-4.175-1.4-5.796.793-1.62 4.142-6.162 6.354-6.162h11.44zM60 81.688c-11.977 0-21.686-9.707-21.686-21.687 0-11.97 9.71-21.68 21.686-21.68S81.687 48.03 81.687 60 71.977 81.687 60 81.687z"/></symbol><symbol id="s-l0" viewBox="0 0 33.082 25.34"><g fill="none" stroke="#e1e1e1"><path d="M.494 13.985v10.86h7.447V13.97z" stroke-width=".987"/><path d="M12.87 7.826v16.997h7.223V7.802z" stroke-width="1.035"/><path d="M510.397 543.964v24.296h7.706v-24.33z" transform="translate(-485.52 -543.427)"/></g></symbol><symbol id="s-l1" viewBox="0 0 33.089 25.345"><path d="M485.585 557.199v11.556h8.09v-11.573z" fill="#2cc216" fill-rule="evenodd" transform="translate(-485.514 -543.427)"/><path d="M12.876 7.826v16.997h7.223V7.802z" fill="none" stroke="#e1e1e1" stroke-width="1.035"/><path d="M510.397 543.964v24.296h7.706v-24.33z" fill="none" stroke="#e1e1e1" transform="translate(-485.514 -543.427)"/></symbol><symbol id="s-l2" viewBox="0 0 33.044 25.429"><path d="M485.559 557.413v11.447h8.206v-11.463zm12.451-6.159v17.603h7.983v-17.628z" fill="#e88600" fill-rule="evenodd" transform="translate(-485.559 -543.427)"/><path d="M510.397 543.964v24.296h7.706v-24.33z" fill="none" stroke="#e1e1e1" transform="translate(-485.559 -543.427)"/></symbol><symbol id="s-l3" viewBox="0 0 33.089 25.345"><path d="M485.585 557.413v11.396h8.305v-11.412zm12.805-6.159v17.64h7.653v-17.665zm12.007-7.289v24.725h8.135v-24.76z" transform="translate(-485.514 -543.427)" fill="#ff4f59" fill-rule="evenodd"/></symbol><symbol id="s-locked" viewBox="0 0 887.605 777.893"><g fill="#ccc"><path d="M771.43 926.589c19.277-5.056 32.295-17.145 38.242-35.511 3.358-10.37 3.704-331.629.37-342.432-5.85-18.947-19.594-31.857-38.926-36.562-78.857-2.32-284.448-2.101-394.686-2.406-44.735-3.174-56.429-2.857-89.286.357l-20.19.363c-30.355.546-54.87 15.37-58.383 34.093-.101 110.127-3.343 211.816.233 346.65 5.879 18.66 21.572 32.582 40.61 36.027 11.32 2.048 514.126 1.49 522.016-.58zm-327.987-46.327c-10.27-6.646-12.199-16.276-7.106-35.481 9.569-36.088 25.008-108.18 23.962-111.893-.611-2.172-6.42-7.722-12.908-12.333-59.147-42.04-50.393-122.458 16.299-149.732 106.954-43.738 195.373 73.057 110.174 145.533-21.967 18.686-21.488 10.31-4.77 83.368 20.714 90.526 24.941 85.115-66.09 84.595-51.018-.291-54.063-.499-59.56-4.057z" transform="translate(75.23 -150.558)"/><path d="M734.024 511.698l-.735-83.501c-.888-100.807-2.008-109.028-20.15-147.942C638.131 119.364 406.262 107.988 312.9 260.62c-13.01 19.731-24.34 44.57-26.972 67.38-.63 6.54-1.754 16.486-2.496 22.103-.873 6.613-1.227 36.676-1.003 85.304l.345 75.09h88.75V496.68c-.449-70.857-.675-72.45.63-105.668.01-64.737 14.763-98.27 56.984-129.535 49.901-36.95 131.65-29.545 176.665 16.005 11.639 12.742 20.475 26.956 28.516 41.895 9.342 17.86 10.497 31.516 10.066 119.032l-.36 73.29c41.57 11.123 49.454 10.841 90 0z" transform="translate(75.23 -150.558)"/></g></symbol><symbol id="s-speedlimit" viewBox="0 0 128 83.456"><path d="M64 26.596a64 65.067 0 00-7.887.556l2.145 15.082a50.418 50.204 0 015.963.717c3.039-5.5 5.994-10.777 8.77-15.613A64 65.067 0 0064 26.596zM49.785 28.28a64 65.067 0 00-32.847 19.381l5.937 6.47a50.418 50.204 0 0128.896-11.884L49.785 28.28zm35.701 2.22a855.683 855.683 0 01-4.492 18.586 50.418 50.204 0 018.012 5.734l11.125-16.78a64 65.067 0 00-14.645-7.54zm19.739 11.482l-11.608 17.51a50.418 50.204 0 0110.83 20.836l20.782-7.549a64 65.067 0 00-20.004-30.797zM12.83 52.69A64 65.067 0 000 91.662a64 65.067 0 00.76 9.457h5.16a50.418 50.204 0 01-.799-8.816 50.418 50.204 0 0113.131-33.705l-5.422-5.909zm113.94 26.368l-21.184 7.695a50.418 50.204 0 01.371 5.55 50.418 50.204 0 01-.83 8.817h22.133a64 65.067 0 00.74-9.457 64 65.067 0 00-1.23-12.605z" fill="#ccc" fill-opacity=".753" transform="translate(0 -18.876)"/><path d="M82.158 18.879c-3.182-.417-24.944 50.712-32.64 64.77-1.766 5.002-4.906 14.804 3.912 17.933 8.818 3.129 13.522-4.23 14.576-9.104 3.395-15.7 17.335-73.182 14.152-73.6zm-24.634 64.87a7.442 7.744 0 017.44 7.745 7.442 7.744 0 01-7.44 7.744 7.442 7.744 0 01-7.442-7.744 7.442 7.744 0 017.442-7.744z" fill="#fff" fill-rule="evenodd" transform="translate(0 -18.876)"/></symbol><symbol id="s-unlocked" viewBox="0 0 887.605 777.893"><g fill="#ccc"><path d="M771.43 926.589c19.277-5.056 32.295-17.145 38.242-35.511 3.358-10.37 3.704-331.629.37-342.432-5.85-18.947-19.594-31.857-38.926-36.562-78.857-2.32-284.448-2.101-394.686-2.406-44.735-3.174-56.429-2.857-89.286.357l-20.19.363c-30.355.546-54.87 15.37-58.383 34.093-.101 110.127-3.343 211.816.233 346.65 5.879 18.66 21.572 32.582 40.61 36.027 11.32 2.048 514.126 1.49 522.016-.58zm-327.987-46.327c-10.27-6.646-12.199-16.276-7.106-35.481 9.569-36.088 25.008-108.18 23.962-111.893-.611-2.172-6.42-7.722-12.908-12.333-59.147-42.04-50.393-122.458 16.299-149.732 106.954-43.738 195.373 73.057 110.174 145.533-21.967 18.686-21.488 10.31-4.77 83.368 20.714 90.526 24.941 85.115-66.09 84.595-51.018-.291-54.063-.499-59.56-4.057z" transform="translate(75.23 -150.558)"/><path d="M378.024 511.698l-.735-83.501c-.888-100.807-2.008-109.028-20.15-147.942C282.131 119.364 50.262 107.988-43.1 260.62c-13.01 19.73-24.34 44.57-26.972 67.38-.63 6.54-1.754 16.486-2.496 22.103-.873 6.613-1.227 36.676-1.003 85.304l.345 75.09h88.75V496.68c-.449-70.857-.675-72.45.63-105.668.01-64.737 14.763-98.27 56.984-129.535 49.901-36.95 131.65-29.545 176.665 16.005 11.639 12.742 20.475 26.956 28.516 41.895 9.342 17.86 10.497 31.516 10.066 119.032l-.36 73.29c41.57 11.123 49.454 10.841 90 0z" transform="translate(75.23 -150.558)"/></g></symbol></svg>